<?xml version="1.0" standalone="no"?>
<!DOCTYPE svg PUBLIC "-//W3C//DTD SVG 20010904//EN"
 "http://www.w3.org/TR/2001/REC-SVG-20010904/DTD/svg10.dtd">
<svg version="1.0" xmlns="http://www.w3.org/2000/svg"
 width="564.000000pt" height="423.000000pt" viewBox="0 0 564.000000 423.000000"
 preserveAspectRatio="xMidYMid meet">

<g transform="translate(0.000000,423.000000) scale(0.100000,-0.100000)"
fill="#000000" stroke="none">
<path d="M1320 4221 c0 -17 50 -41 85 -41 24 0 35 -4 35 -15 0 -8 4 -15 10
-15 5 0 7 7 4 15 -4 9 1 18 12 22 11 4 24 13 29 20 12 16 45 8 45 -11 1 -20
51 -72 57 -58 2 6 15 12 28 12 15 0 25 7 29 23 3 12 18 30 33 39 27 17 22 17
-169 18 -109 0 -198 -4 -198 -9z"/>
<path d="M1936 4215 c4 -8 -1 -17 -10 -21 -26 -10 -19 -24 12 -24 15 0 38 -7
50 -16 21 -14 22 -14 22 5 0 22 10 27 26 12 15 -16 44 12 37 37 -5 20 -12 22
-74 22 -56 0 -67 -3 -63 -15z"/>
<path d="M2090 4220 c0 -5 4 -10 9 -10 6 0 13 5 16 10 3 6 -1 10 -9 10 -9 0
-16 -4 -16 -10z"/>
<path d="M2158 4183 c-3 -27 -2 -52 2 -56 13 -15 40 5 40 29 0 13 2 24 4 24 2
0 11 3 20 6 12 4 16 0 16 -15 0 -14 6 -21 20 -21 17 0 20 7 20 40 l0 40 -59 0
-59 0 -4 -47z"/>
<path d="M2340 4190 c0 -34 -3 -40 -22 -41 -13 -1 4 -5 37 -9 33 -4 76 -10 95
-15 37 -8 33 9 -5 18 -12 3 -6 5 16 6 19 0 40 -4 46 -10 8 -8 13 -8 17 0 4 6
1 11 -6 11 -8 1 -6 6 6 15 25 19 36 19 36 0 0 -12 13 -15 58 -15 63 -1 102
-23 102 -59 0 -18 6 -21 39 -21 22 0 41 5 44 13 4 10 7 10 18 0 16 -16 56 -17
61 -2 4 11 381 14 399 3 5 -3 9 4 9 15 0 12 4 21 8 21 5 0 17 18 27 40 10 22
20 38 23 35 7 -6 32 15 32 26 0 5 -228 9 -520 9 l-520 0 0 -40z m779 -64 c-10
-9 -109 -14 -104 -6 4 6 29 10 57 10 28 0 49 -2 47 -4z"/>
<path d="M3552 4188 c2 -36 7 -44 26 -46 12 -2 22 -8 22 -13 0 -5 10 -9 23 -9
16 0 18 -3 9 -9 -10 -6 -8 -10 10 -14 35 -10 38 -9 38 12 0 14 10 20 40 25 30
5 40 11 40 24 0 16 19 21 160 37 88 10 160 22 160 27 0 4 -120 8 -266 8 l-265
0 3 -42z"/>
<path d="M1271 4184 c0 -11 3 -14 6 -6 3 7 2 16 -1 19 -3 4 -6 -2 -5 -13z"/>
<path d="M3470 4160 c0 -5 5 -10 10 -10 6 0 10 5 10 10 0 6 -4 10 -10 10 -5 0
-10 -4 -10 -10z"/>
<path d="M3058 4063 c7 -3 16 -2 19 1 4 3 -2 6 -13 5 -11 0 -14 -3 -6 -6z"/>
<path d="M3271 4004 c0 -11 3 -14 6 -6 3 7 2 16 -1 19 -3 4 -6 -2 -5 -13z"/>
<path d="M0 1250 l0 -1250 2820 0 2820 0 0 450 c0 248 -4 450 -8 450 -5 0 -17
-9 -27 -20 -15 -17 -31 -20 -94 -20 -42 0 -92 4 -112 9 -24 5 -50 3 -82 -7
-39 -12 -52 -13 -71 -2 -13 7 -29 10 -34 6 -6 -3 -13 2 -17 13 -8 25 -44 37
-174 56 -122 18 -275 21 -322 7 -19 -6 -51 -13 -72 -17 -21 -3 -43 -14 -50
-25 -8 -14 -23 -20 -46 -20 -26 0 -47 -11 -88 -46 -50 -43 -56 -46 -91 -38
-47 9 -68 6 -112 -16 -19 -10 -54 -21 -77 -25 -24 -4 -59 -18 -79 -31 -36 -25
-37 -25 -78 -9 -22 9 -55 25 -72 36 -60 37 -157 21 -167 -28 -5 -21 -17 -33
-48 -47 -40 -18 -41 -18 -69 3 -16 11 -35 21 -43 21 -7 0 -18 5 -24 11 -13 13
-190 13 -247 0 -21 -5 -50 -20 -65 -33 -31 -29 -73 -48 -104 -48 -32 0 -96
-46 -103 -75 -3 -13 -17 -31 -30 -40 -13 -8 -24 -22 -24 -30 0 -12 -7 -14 -27
-9 -15 4 -33 13 -40 19 -7 7 -28 16 -48 19 -24 5 -35 12 -35 24 0 14 -2 15
-10 2 -10 -16 -12 -15 -28 15 -6 11 -12 15 -12 8 0 -9 -8 -9 -30 -2 -16 6 -37
9 -47 6 -15 -3 -13 -6 10 -15 15 -6 27 -14 27 -17 0 -4 -5 -3 -10 0 -6 4 -17
2 -25 -5 -9 -7 -15 -8 -20 0 -3 5 0 10 7 10 10 1 9 4 -2 13 -9 7 -17 26 -18
43 -2 29 1 32 32 38 27 5 34 11 33 27 -1 12 -12 25 -24 30 -24 9 -32 31 -10
27 7 -2 11 7 10 22 l-2 25 12 -25 c13 -29 37 -56 37 -43 0 5 -7 18 -15 29 -19
25 -19 34 0 34 8 0 15 -5 15 -12 0 -6 6 -4 13 7 9 11 19 15 27 10 9 -5 11 -4
6 4 -6 8 0 10 21 6 16 -3 21 -2 13 2 -8 5 -15 20 -15 35 1 31 10 44 20 29 3
-6 1 -11 -4 -11 -6 0 -11 -4 -11 -10 0 -21 20 -9 26 15 5 22 26 38 23 17 -3
-19 2 -23 15 -13 17 14 37 11 53 -9 11 -13 12 -13 13 1 0 23 26 31 40 14 7 -8
16 -13 20 -10 5 3 10 -2 12 -12 3 -15 4 -15 21 1 16 17 17 17 17 0 0 -14 3
-15 12 -6 8 8 17 8 30 1 14 -8 26 -6 45 6 26 17 48 11 23 -6 -11 -8 -12 -12
-2 -16 6 -2 9 -9 6 -15 -4 -6 1 -8 15 -3 13 4 21 2 21 -6 0 -9 3 -9 14 0 8 7
23 11 33 9 14 -2 17 3 16 22 -2 21 -1 23 10 9 10 -13 40 -17 80 -10 10 1 -2
45 -14 49 -17 7 -9 22 11 22 13 0 18 -5 14 -15 -8 -19 3 -19 21 -1 16 16 10
26 -17 26 -10 0 -21 7 -24 15 -4 8 -11 12 -17 8 -6 -3 -7 -1 -3 6 9 14 -2 51
-15 51 -6 0 -7 -5 -4 -10 3 -6 -1 -10 -10 -10 -12 0 -15 5 -11 16 5 12 2 15
-10 10 -8 -3 -25 -6 -37 -6 -18 0 -16 -3 11 -16 17 -9 32 -20 32 -25 0 -15
-17 -10 -24 6 -3 8 -17 15 -31 15 -25 0 -34 14 -15 25 14 9 12 45 -3 45 -7 0
-18 9 -25 21 -10 15 -10 19 -1 14 9 -6 10 -1 5 21 -7 27 -7 28 12 11 25 -23
42 -22 42 4 0 11 -4 18 -9 14 -5 -3 -16 3 -23 13 -11 16 -31 27 -56 33 -11 3
-32 58 -32 86 0 18 -4 24 -15 19 -8 -3 -15 -1 -15 5 0 5 -11 2 -25 -7 -14 -9
-25 -12 -25 -7 0 5 -18 10 -40 11 -23 2 -40 -2 -40 -8 0 -18 -38 7 -45 30 -7
23 -20 25 -55 7 -27 -14 -83 -6 -96 15 -4 7 -3 8 4 4 7 -4 12 -1 12 7 0 20
-51 39 -86 32 -16 -3 -72 -9 -124 -14 -52 -5 -107 -14 -122 -20 -16 -6 -37 -7
-50 -2 -20 7 -18 9 15 15 32 6 37 10 37 36 0 48 -7 55 -52 53 -24 0 -47 5 -55
13 -8 8 -33 14 -55 14 -56 0 -118 20 -118 38 0 24 -43 62 -71 62 -15 0 -42 7
-61 15 -28 11 -53 12 -127 5 -51 -6 -100 -14 -108 -19 -9 -5 -27 -4 -43 2 -15
6 -35 7 -46 2 -10 -4 -25 -7 -31 -6 -17 2 -17 -26 0 -32 6 -2 3 -2 -8 0 -11 3
-58 9 -105 15 -47 5 -104 18 -127 28 -35 16 -55 19 -116 14 l-74 -7 -32 57
-33 56 -59 -5 c-32 -3 -59 -2 -58 2 3 20 -2 27 -11 13 -6 -9 -10 -10 -10 -3 0
6 4 14 10 18 9 6 9 10 -5 50 -5 16 -8 17 -15 5 -6 -10 -8 -4 -8 19 1 29 4 32
25 28 13 -2 21 -2 18 1 -3 3 7 13 22 23 27 18 26 20 -17 31 -11 4 -8 11 14 31
16 15 32 24 37 21 5 -3 9 0 9 6 0 7 -8 9 -22 4 -21 -6 -21 -5 -9 10 8 9 21 16
30 15 31 -3 35 1 15 16 -14 11 -15 14 -2 9 9 -3 28 0 42 8 23 12 20 13 -37 11
-34 -1 -63 -6 -65 -12 -2 -6 -21 -11 -43 -11 -33 0 -39 3 -39 20 0 11 -8 24
-17 27 -10 4 -20 10 -23 15 -3 4 -33 10 -65 12 -169 13 -218 15 -201 7 14 -5
16 -10 7 -15 -6 -4 -19 -2 -27 5 -10 8 -42 10 -117 5 -62 -4 -97 -3 -88 3 11
7 8 11 -10 17 -27 9 -34 11 -49 13 -17 2 -11 19 8 23 9 2 -8 5 -38 6 -82 3
-131 9 -138 17 -4 4 14 5 41 3 47 -6 68 3 45 19 -8 5 12 11 52 15 142 16 185
23 174 30 -7 5 -23 8 -35 8 -13 0 -49 3 -79 5 -30 3 -65 6 -78 6 -13 1 -21 7
-19 13 2 7 32 11 78 11 41 0 80 4 87 8 7 5 50 9 95 9 83 0 317 -19 325 -26 2
-3 -21 -7 -52 -11 -73 -9 -72 -25 2 -26 40 0 51 -3 37 -9 -11 -4 -31 -6 -45
-3 -20 3 -22 2 -9 -6 8 -5 53 -12 100 -15 136 -7 193 -17 212 -37 22 -23 22
-25 -5 -34 -42 -13 -63 -13 -78 0 -34 29 -59 28 -91 -4 -30 -30 -30 -31 -7
-31 29 0 42 -9 58 -39 11 -22 13 -22 22 -7 12 22 3 46 -17 46 -8 0 -15 5 -15
11 0 5 4 8 9 5 5 -4 12 0 14 6 4 8 6 7 6 -3 1 -21 28 -32 35 -16 4 8 8 8 11 2
3 -6 24 -9 46 -7 29 3 40 1 35 -7 -13 -20 5 -11 29 15 14 15 25 35 25 45 0 22
11 24 28 7 9 -9 12 -9 12 0 0 6 7 9 15 6 8 -4 17 1 21 10 7 18 68 38 90 29 8
-3 14 -11 14 -17 0 -8 11 -11 28 -9 36 5 54 -9 54 -42 0 -14 7 -29 14 -32 8
-3 14 -12 14 -20 0 -8 5 -11 10 -8 5 3 10 1 10 -5 0 -6 10 -11 23 -10 12 1 38
1 57 0 29 -1 32 -3 15 -10 -11 -5 -14 -9 -7 -9 7 -1 23 5 35 13 12 8 43 18 69
21 26 4 45 11 42 16 -3 5 -10 7 -15 4 -5 -4 -9 -1 -9 5 0 6 8 10 18 8 11 -2
26 3 36 11 14 12 16 12 10 -4 -6 -15 -2 -16 30 -12 20 3 39 1 42 -4 10 -17 39
-9 49 14 12 27 43 29 73 3 12 -11 22 -14 22 -8 0 19 -4 27 -13 24 -5 -1 -6 2
-2 8 3 6 -3 22 -14 36 -12 15 -21 22 -21 17 0 -5 5 -14 12 -21 7 -7 8 -12 2
-12 -5 0 -15 9 -21 19 -10 16 -9 20 3 25 8 3 12 11 9 16 -6 10 9 10 55 1 3 -1
-2 -5 -10 -11 -9 -6 -17 -5 -22 3 -6 9 -8 9 -8 -1 0 -8 9 -16 20 -19 14 -4 19
-11 15 -23 -3 -11 1 -20 10 -24 9 -3 15 0 15 9 0 7 5 17 12 21 8 5 9 1 4 -12
-6 -15 -5 -17 5 -6 7 6 18 12 23 12 6 0 4 -4 -4 -10 -8 -5 -11 -12 -8 -15 4
-4 11 -4 17 0 13 8 15 35 2 35 -5 0 -8 11 -6 25 3 31 -1 31 -26 3 l-19 -23 10
28 c6 17 6 27 0 27 -6 0 -10 -8 -10 -17 0 -15 -2 -14 -14 3 -13 17 -13 19 0
22 13 3 12 6 -3 19 -10 8 -12 12 -5 8 6 -3 17 -3 24 1 8 5 6 10 -8 15 -18 7
-18 8 -1 8 11 1 21 -8 24 -19 6 -24 35 -26 57 -5 10 10 17 12 22 4 3 -6 17 -9
30 -6 13 2 24 0 24 -4 0 -5 -6 -9 -12 -9 -7 0 -4 -6 7 -12 11 -6 23 -16 27
-22 5 -7 8 -8 8 -1 0 6 -5 16 -10 21 -8 8 -5 15 7 25 17 13 17 13 3 -5 -14
-18 -13 -19 2 -13 9 3 19 3 21 -1 2 -4 2 -2 1 5 -6 24 21 33 46 16 13 -9 20
-12 17 -6 -5 7 0 9 13 6 11 -3 20 -9 20 -13 0 -4 7 -11 16 -14 11 -4 15 -2 11
8 -4 10 1 13 19 11 15 -1 28 4 31 12 4 10 9 11 19 2 8 -6 14 -16 14 -21 0 -7
-4 -7 -12 0 -10 7 -18 3 -32 -16 -19 -27 -19 -27 0 -10 22 19 44 19 68 -1 9
-7 23 -10 32 -7 11 4 15 2 11 -8 -4 -10 0 -12 14 -9 12 3 19 0 20 -8 2 -39 11
-74 21 -80 7 -4 7 -9 -1 -13 -19 -12 -12 -35 10 -31 17 3 19 0 13 -18 -3 -12
-11 -26 -17 -32 -7 -7 -8 -6 -3 2 5 9 2 11 -10 6 -11 -4 -15 -3 -10 5 3 6 2
13 -3 16 -5 4 -8 -1 -7 -10 1 -9 10 -20 19 -26 10 -5 17 -22 18 -41 0 -25 2
-28 8 -13 6 15 9 17 16 6 5 -8 1 -18 -10 -27 -12 -8 -14 -13 -6 -13 11 0 11
-3 1 -15 -11 -13 -10 -14 4 -9 12 4 15 2 11 -9 -4 -8 4 -22 17 -33 33 -26 47
-49 25 -41 -20 7 -22 -8 -5 -27 11 -11 19 -11 51 0 44 15 64 10 46 -12 -9 -11
-7 -14 15 -14 25 0 31 8 27 38 -1 6 3 12 9 12 6 0 8 -5 5 -10 -3 -5 -2 -10 4
-10 5 0 12 -12 14 -27 l4 -28 2 28 c0 17 7 27 16 27 8 0 15 5 15 11 0 5 -5 7
-11 3 -10 -6 -28 11 -29 26 0 3 15 7 33 8 17 2 34 7 35 12 6 17 33 11 53 -12
14 -17 17 -18 13 -5 -5 13 -2 16 10 11 9 -3 16 -12 16 -20 0 -10 11 -12 48 -8
26 3 53 7 60 10 17 5 15 -3 -9 -27 -15 -15 -28 -19 -49 -14 -15 3 -31 2 -34
-3 -3 -5 20 -10 51 -11 31 -1 59 -4 61 -6 2 -2 11 3 20 11 14 14 16 14 25 -1
5 -9 7 -18 5 -20 -2 -3 -33 -7 -68 -10 -77 -7 -102 -13 -95 -25 3 -5 -3 -11
-12 -13 -10 -3 -3 -5 15 -6 17 0 32 -6 32 -12 0 -6 -9 -9 -20 -6 -22 6 -45
-16 -37 -35 4 -8 6 -7 6 4 1 22 24 14 58 -20 19 -19 27 -22 33 -12 6 9 10 7
15 -9 5 -17 9 -19 19 -9 7 7 15 21 19 31 3 9 11 17 17 17 5 0 10 6 10 14 0 21
18 30 34 17 7 -6 16 -8 19 -4 4 3 16 -2 28 -13 20 -18 21 -18 35 0 7 11 17 16
21 12 4 -4 2 -10 -5 -15 -8 -5 -6 -12 8 -24 11 -9 22 -12 25 -8 3 5 -2 11 -10
15 -8 3 -12 12 -9 21 7 18 24 20 24 2 0 -7 9 -13 20 -14 11 -1 20 4 20 10 0 7
4 6 10 -3 8 -13 12 -13 27 3 12 12 14 20 7 25 -14 9 -14 42 1 42 6 0 17 -6 24
-13 10 -10 11 -9 6 6 -5 11 -18 17 -36 17 -16 0 -29 4 -29 9 0 5 21 4 48 -1
62 -12 66 -12 140 -4 44 5 62 4 57 -3 -3 -6 -13 -11 -21 -11 -8 0 -14 -7 -14
-15 0 -9 6 -15 13 -14 30 4 45 -2 50 -21 3 -13 0 -20 -9 -20 -8 0 -14 -10 -14
-25 0 -14 5 -25 11 -25 5 0 7 5 4 10 -3 6 -1 10 6 10 7 0 9 3 6 7 -8 7 21 43
34 43 5 0 5 -8 2 -17 -6 -15 -5 -16 9 -3 9 8 14 17 12 19 -2 3 13 13 33 22
l38 18 -25 10 c-22 9 -19 10 21 8 26 -1 45 -5 42 -9 -2 -5 -9 -8 -14 -8 -17 0
-59 -32 -53 -41 3 -5 22 -2 42 7 l37 15 -22 -20 c-12 -12 -27 -21 -33 -21 -5
0 -10 -5 -10 -11 0 -6 12 -8 29 -6 21 4 28 1 25 -8 -3 -7 -14 -11 -25 -8 -14
4 -19 0 -19 -13 0 -16 2 -16 10 -4 7 12 12 11 30 -5 18 -16 20 -16 14 -2 -4
11 -1 17 9 17 8 0 17 -4 19 -9 2 -5 10 -2 18 7 13 14 12 15 -2 10 -10 -4 -19
-1 -22 8 -7 18 -2 18 37 -3 l32 -17 -25 -7 c-16 -4 -19 -7 -7 -8 9 -1 25 3 35
9 9 5 30 15 46 20 21 8 26 15 22 28 -6 14 -4 14 12 -3 24 -24 38 -65 23 -65
-6 0 -12 12 -12 28 -1 16 -3 20 -6 10 -2 -10 -13 -18 -23 -18 -20 0 -33 -13
-23 -24 3 -3 12 -1 18 4 8 7 20 4 39 -11 14 -11 32 -18 39 -16 7 3 4 6 -6 6
-23 1 -17 25 6 29 12 3 17 -4 17 -22 0 -14 4 -26 9 -26 10 0 8 34 -5 64 -5 13
-4 17 3 13 7 -4 16 6 22 24 8 24 15 30 31 26 11 -3 23 -1 26 4 3 5 -14 10 -38
11 -37 1 -38 2 -10 5 18 3 32 10 32 18 0 9 -7 11 -22 7 -19 -5 -20 -4 -8 10 8
9 20 14 26 11 6 -2 14 3 18 13 5 13 4 14 -7 6 -8 -7 -17 -9 -20 -5 -4 3 -16
-4 -27 -17 -11 -13 -20 -18 -20 -11 0 7 -7 19 -15 27 -13 13 -12 17 8 37 l22
22 -23 3 c-23 3 -23 4 -6 23 9 10 23 19 29 19 7 0 13 11 13 24 -1 16 -10 29
-32 40 -22 12 -25 15 -9 12 20 -3 39 16 35 37 -1 4 4 7 11 7 8 0 7 4 -3 10 -8
5 -24 10 -35 10 -16 0 -17 -2 -5 -10 12 -8 12 -10 -2 -15 -10 -4 -23 -3 -30 1
-7 5 -22 8 -33 9 -24 0 -50 46 -33 57 7 3 20 2 29 -3 26 -13 39 -11 33 5 -4
11 0 13 15 9 13 -3 21 -1 21 6 0 7 4 10 9 7 4 -3 7 -17 6 -31 -3 -20 1 -25 18
-25 20 1 20 2 5 11 -10 5 -18 15 -18 20 0 6 5 7 10 4 6 -3 10 2 10 12 0 15 2
16 11 3 8 -12 9 -10 4 9 -5 17 -4 22 5 16 9 -5 11 -4 6 4 -6 9 -11 9 -22 0
-11 -9 -20 -8 -39 5 -21 14 -27 36 -9 36 3 0 2 -4 -1 -10 -3 -5 1 -10 9 -10 9
0 16 7 16 15 0 21 -38 57 -52 49 -8 -5 -9 -1 -5 12 6 17 6 17 -6 2 -9 -11 -22
-14 -40 -11 -30 6 -47 23 -24 23 8 0 17 7 21 15 6 17 36 21 36 5 0 -5 5 -10
10 -10 6 0 10 11 10 25 0 14 5 25 11 25 5 0 7 5 4 10 -4 6 -11 7 -17 4 -7 -5
-8 -2 -3 6 5 8 4 11 -3 6 -6 -4 -9 -12 -6 -19 2 -7 -6 -13 -21 -13 -14 -1 -23
2 -20 6 3 5 2 10 -2 13 -5 2 -3 3 4 1 18 -4 24 8 12 23 -8 8 -8 13 -1 13 6 0
12 -6 14 -12 3 -9 9 -8 22 4 19 20 41 14 72 -19 27 -29 34 -29 34 0 0 16 3 18
9 8 6 -8 2 -30 -11 -58 -11 -25 -17 -48 -13 -51 9 -9 25 19 25 44 0 11 8 28
19 38 17 16 19 15 35 -6 11 -16 18 -19 22 -10 3 6 19 12 35 12 18 0 28 4 24
10 -9 14 9 12 23 -2 10 -10 8 -16 -10 -31 -13 -10 -17 -16 -10 -12 6 3 12 2
12 -4 0 -5 -4 -11 -10 -13 -17 -6 6 -29 33 -34 32 -5 34 -1 6 27 -23 23 -21
33 5 23 12 -5 14 -9 6 -14 -7 -4 1 -10 20 -13 l31 -7 -16 -31 c-18 -33 -15
-42 14 -44 12 -1 17 3 14 12 -6 16 -23 17 -23 1 0 -6 -2 -9 -5 -6 -9 8 6 38
16 32 5 -3 9 2 9 11 0 13 9 15 44 14 25 -2 43 -6 41 -9 -2 -4 -17 -6 -34 -5
-26 1 -28 0 -18 -17 11 -16 12 -16 18 -1 5 15 6 15 12 0 3 -9 11 -17 17 -17 6
0 9 4 6 9 -3 5 1 14 9 21 12 10 16 9 21 -4 4 -10 13 -15 21 -12 8 3 11 1 8 -4
-9 -14 -35 -12 -36 3 -1 6 -5 -4 -9 -23 -9 -36 -4 -53 8 -34 4 6 18 14 32 18
22 6 23 6 8 -7 -11 -8 -14 -18 -8 -27 5 -8 6 -19 4 -25 -3 -5 1 -2 9 8 14 17
15 17 33 0 18 -18 20 -19 41 -1 8 7 19 5 35 -6 27 -19 42 -21 32 -3 -4 7 -3 9
2 4 5 -5 10 -13 10 -18 3 -22 5 -23 15 -9 8 11 12 12 16 3 3 -10 10 -10 24 -2
11 5 17 14 14 19 -4 6 3 6 17 1 22 -8 55 3 70 24 5 7 8 7 8 0 0 -5 4 -4 9 4 6
10 19 12 45 7 20 -4 34 -11 31 -16 -3 -5 -1 -11 4 -14 5 -4 12 -2 16 4 3 5 27
10 53 10 34 0 43 -3 32 -10 -12 -8 -11 -10 8 -10 20 0 21 3 12 21 -13 23 1 49
26 49 8 0 11 6 8 15 -4 9 1 18 11 21 9 4 14 13 11 21 -4 9 -2 11 7 6 6 -4 15
-8 19 -8 15 0 20 -15 5 -15 -19 0 -21 -8 -7 -30 5 -8 12 -11 17 -7 4 5 1 12
-7 18 -10 6 -4 7 20 4 19 -3 29 -3 22 1 -15 7 -16 24 -2 24 6 0 15 -10 20 -22
8 -20 15 -11 11 15 0 4 4 7 9 7 6 0 10 -7 10 -15 0 -8 4 -15 10 -15 5 0 7 6 4
14 -3 7 2 16 12 20 11 4 15 2 11 -7 -3 -8 3 -13 14 -13 14 0 17 5 13 18 -7 22
5 23 42 4 19 -11 33 -12 46 -5 15 8 18 6 19 -13 1 -18 2 -19 6 -5 3 10 11 16
18 14 7 -3 18 0 24 6 8 8 11 8 11 -1 0 -7 4 -12 9 -12 5 0 3 14 -6 30 -12 24
-12 34 -3 45 9 11 9 15 1 15 -6 0 -11 -4 -11 -8 0 -10 -36 -9 -46 0 -3 3 4 9
16 13 12 4 19 12 17 19 -3 6 1 20 9 31 8 10 14 15 14 9 0 -5 5 -2 10 6 8 12
10 8 11 -15 1 -16 1 -33 0 -38 0 -4 6 -7 15 -7 8 0 12 -5 9 -10 -3 -6 -1 -10
4 -10 7 0 11 35 11 95 l0 95 -167 2 c-93 1 -186 2 -208 3 -22 1 -206 5 -410 8
-203 4 -471 9 -595 12 -124 3 -475 10 -780 15 -477 9 -1618 37 -2245 55 -104
3 -377 10 -605 15 -228 5 -463 12 -522 15 l-108 5 0 -1250z m3960 993 c0 -7 5
-13 10 -13 6 0 10 -7 10 -17 0 -15 -1 -15 -18 0 -10 10 -23 14 -27 10 -5 -5
-4 -1 3 8 10 13 9 19 -3 29 -8 7 -15 16 -15 21 0 5 9 1 20 -8 11 -10 20 -23
20 -30z m115 37 c3 -5 -3 -15 -14 -21 -11 -8 -17 -19 -13 -28 5 -14 3 -14 -11
-2 -23 18 -21 28 4 34 12 3 18 10 14 16 -3 6 -2 11 4 11 5 0 13 -4 16 -10z
m179 -12 c9 -12 14 -24 12 -26 -7 -7 -46 23 -46 35 0 20 17 15 34 -9z m-264
-18 c0 -5 -4 -10 -10 -10 -5 0 -10 5 -10 10 0 6 5 10 10 10 6 0 10 -4 10 -10z
m-90 -4 c0 -3 -4 -8 -10 -11 -5 -3 -10 -1 -10 4 0 6 5 11 10 11 6 0 10 -2 10
-4z m414 -38 c-4 -6 -10 -5 -15 3 -14 22 -10 33 6 19 8 -7 12 -17 9 -22z m134
-2 c-7 -8 -15 -12 -17 -11 -5 6 10 25 20 25 5 0 4 -6 -3 -14z m-3385 -3 c-7
-2 -21 -2 -30 0 -10 3 -4 5 12 5 17 0 24 -2 18 -5z m2847 -3 c0 -5 -7 -10 -15
-10 -8 0 -15 5 -15 10 0 6 7 10 15 10 8 0 15 -4 15 -10z m44 -6 c7 -19 -1 -34
-17 -33 -9 0 -9 2 1 6 17 7 15 23 -3 23 -8 0 -15 5 -15 10 0 16 27 11 34 -6z
m43 -45 c1 -12 -3 -19 -10 -16 -17 5 -21 37 -5 37 8 0 14 -9 15 -21z m488 3
c-3 -3 -11 0 -18 7 -9 10 -8 11 6 5 10 -3 15 -9 12 -12z m45 -2 c0 -5 -4 -10
-10 -10 -5 0 -10 5 -10 10 0 6 5 10 10 10 6 0 10 -4 10 -10z m-1376 -19 c4 -5
-3 -7 -14 -4 -23 6 -26 13 -6 13 8 0 17 -4 20 -9z m-2060 -65 c-3 -9 -10 -13
-16 -10 -5 3 -4 12 3 20 15 18 22 13 13 -10z m3592 -21 c-20 -15 -36 -19 -36
-10 0 5 38 23 50 24 3 0 -4 -6 -14 -14z m-536 -21 c0 -8 -5 -12 -10 -9 -6 4
-8 11 -5 16 9 14 15 11 15 -7z m-3303 0 c-3 -3 -12 -4 -19 -1 -8 3 -5 6 6 6
11 1 17 -2 13 -5z m3989 -26 c3 -4 -1 -5 -10 -4 -8 1 -18 5 -22 8 -3 4 1 5 10
4 8 -1 18 -5 22 -8z m-3849 -54 c-3 -3 -12 -4 -19 -1 -8 3 -5 6 6 6 11 1 17
-2 13 -5z m28 -24 c-28 -12 -55 -12 -55 0 0 6 17 10 38 9 30 0 33 -2 17 -9z
m2005 -87 c0 -5 -11 -9 -25 -9 -14 -1 -25 2 -25 7 0 5 11 9 25 9 14 0 25 -3
25 -7z m-235 -13 c-3 -5 -12 -10 -18 -10 -7 0 -6 4 3 10 19 12 23 12 15 0z
m45 0 c0 -5 -8 -10 -17 -10 -15 0 -16 2 -3 10 19 12 20 12 20 0z m1310 -10 c0
-5 -5 -10 -11 -10 -5 0 -7 5 -4 10 3 6 8 10 11 10 2 0 4 -4 4 -10z m-1047 -7
c-7 -2 -19 -2 -25 0 -7 3 -2 5 12 5 14 0 19 -2 13 -5z m47 -3 c0 -5 -5 -10
-11 -10 -5 0 -7 5 -4 10 3 6 8 10 11 10 2 0 4 -4 4 -10z m265 0 c-3 -5 -11
-10 -16 -10 -6 0 -7 5 -4 10 3 6 11 10 16 10 6 0 7 -4 4 -10z m-298 -16 c-3
-3 -12 -4 -19 -1 -8 3 -5 6 6 6 11 1 17 -2 13 -5z m460 0 c-3 -3 -12 -4 -19
-1 -8 3 -5 6 6 6 11 1 17 -2 13 -5z m-22 -34 c8 -13 -5 -13 -25 0 -13 8 -13
10 2 10 9 0 20 -4 23 -10z m-340 -10 c-3 -5 -12 -7 -20 -3 -21 7 -19 13 6 13
11 0 18 -4 14 -10z m887 -12 c-7 -7 -12 -8 -12 -2 0 14 12 26 19 19 2 -3 -1
-11 -7 -17z m-452 -10 c0 -13 -43 -6 -47 8 -2 7 6 10 22 7 14 -3 25 -10 25
-15z m-332 -5 c-10 -2 -26 -2 -35 0 -10 3 -2 5 17 5 19 0 27 -2 18 -5z m705 0
c-7 -2 -21 -2 -30 0 -10 3 -4 5 12 5 17 0 24 -2 18 -5z m117 3 c0 -2 -7 -6
-15 -10 -8 -3 -15 -1 -15 4 0 6 7 10 15 10 8 0 15 -2 15 -4z m10 -26 c0 -5 -5
-10 -11 -10 -5 0 -7 5 -4 10 3 6 8 10 11 10 2 0 4 -4 4 -10z m-823 -25 c0 -8
-6 -15 -13 -15 -8 0 -11 6 -8 15 4 8 9 15 13 15 4 0 8 -7 8 -15z m-167 -15 c0
-5 -4 -10 -10 -10 -5 0 -10 5 -10 10 0 6 5 10 10 10 6 0 10 -4 10 -10z m264 1
c4 -5 -3 -7 -14 -4 -23 6 -26 13 -6 13 8 0 17 -4 20 -9z m51 -1 c3 -5 1 -10
-4 -10 -6 0 -11 5 -11 10 0 6 2 10 4 10 3 0 8 -4 11 -10z m595 -14 c0 -3 -4
-8 -10 -11 -5 -3 -10 -1 -10 4 0 6 5 11 10 11 6 0 10 -2 10 -4z m-910 -16 c0
-5 -2 -10 -4 -10 -3 0 -8 5 -11 10 -3 6 -1 10 4 10 6 0 11 -4 11 -10z m37 4
c-3 -3 -12 -4 -19 -1 -8 3 -5 6 6 6 11 1 17 -2 13 -5z m843 -19 c14 -16 10
-18 -14 -9 -9 3 -16 10 -16 15 0 14 16 11 30 -6z m-835 -25 c3 -5 1 -10 -4
-10 -6 0 -11 5 -11 10 0 6 2 10 4 10 3 0 8 -4 11 -10z m-1695 -97 c0 -5 -17
-9 -38 -10 -32 -1 -33 0 -12 7 33 11 50 12 50 3z m958 -148 c-3 -3 -9 2 -12
12 -6 14 -5 15 5 6 7 -7 10 -15 7 -18z m135 -742 c-7 -2 -19 -2 -25 0 -7 3 -2
5 12 5 14 0 19 -2 13 -5z m-56 -9 c-3 -3 -12 -4 -19 -1 -8 3 -5 6 6 6 11 1 17
-2 13 -5z m151 -9 c10 -9 -53 -5 -68 5 -11 7 -4 9 24 5 21 -2 41 -7 44 -10z
m-3 -25 c3 -5 -3 -10 -14 -10 -12 0 -21 5 -21 10 0 6 6 10 14 10 8 0 18 -4 21
-10z"/>
<path d="M4135 2240 c3 -5 10 -10 16 -10 5 0 9 5 9 10 0 6 -7 10 -16 10 -8 0
-12 -4 -9 -10z"/>
<path d="M4166 2224 c-4 -10 -2 -22 4 -28 8 -8 9 -5 4 9 -7 18 -6 18 9 6 9 -7
17 -9 17 -3 0 5 -6 15 -14 21 -11 9 -15 8 -20 -5z"/>
<path d="M2211 2196 c-8 -10 -9 -16 -1 -21 5 -3 10 -1 10 4 0 6 7 11 16 11 8
0 12 5 9 10 -9 14 -20 12 -34 -4z"/>
<path d="M828 2193 c7 -3 16 -2 19 1 4 3 -2 6 -13 5 -11 0 -14 -3 -6 -6z"/>
<path d="M4201 2174 c0 -11 3 -14 6 -6 3 7 2 16 -1 19 -3 4 -6 -2 -5 -13z"/>
<path d="M2230 2169 c0 -5 5 -7 10 -4 6 3 10 8 10 11 0 2 -4 4 -10 4 -5 0 -10
-5 -10 -11z"/>
<path d="M4155 2169 c-4 -6 -5 -12 -2 -15 2 -3 7 2 10 11 7 17 1 20 -8 4z"/>
<path d="M4250 2171 c0 -5 5 -13 10 -16 6 -3 10 -2 10 4 0 5 -4 13 -10 16 -5
3 -10 2 -10 -4z"/>
<path d="M4306 2169 c6 -10 54 -8 54 3 0 3 -13 6 -30 6 -16 -1 -27 -5 -24 -9z"/>
<path d="M2341 2154 c0 -11 3 -14 6 -6 3 7 2 16 -1 19 -3 4 -6 -2 -5 -13z"/>
<path d="M2455 2160 c-3 -6 1 -7 9 -4 18 7 21 14 7 14 -6 0 -13 -4 -16 -10z"/>
<path d="M4280 2165 c0 -5 5 -17 10 -25 5 -8 10 -10 10 -5 0 6 -5 17 -10 25
-5 8 -10 11 -10 5z"/>
<path d="M4170 2136 c0 -9 5 -16 10 -16 6 0 10 4 10 9 0 6 -4 13 -10 16 -5 3
-10 -1 -10 -9z"/>
<path d="M2580 2129 c0 -5 5 -7 10 -4 6 3 10 8 10 11 0 2 -4 4 -10 4 -5 0 -10
-5 -10 -11z"/>
<path d="M533 2109 c1 -22 22 -25 30 -5 3 8 -2 16 -13 19 -14 3 -18 0 -17 -14z"/>
<path d="M735 2110 c3 -5 8 -10 11 -10 2 0 4 5 4 10 0 6 -5 10 -11 10 -5 0 -7
-4 -4 -10z"/>
<path d="M2447 2106 c-4 -10 -1 -13 8 -9 8 3 12 9 9 14 -7 12 -11 11 -17 -5z"/>
<path d="M4276 2112 c6 -4 14 -14 17 -22 4 -10 6 -8 6 8 1 15 -5 22 -16 22
-11 0 -14 -3 -7 -8z"/>
<path d="M4415 2100 c4 -6 11 -8 16 -5 14 9 11 15 -7 15 -8 0 -12 -5 -9 -10z"/>
<path d="M600 2090 c-12 -8 -10 -10 8 -10 13 0 20 4 17 10 -7 12 -6 12 -25 0z"/>
<path d="M655 2090 c-6 -9 18 -20 47 -20 11 0 18 5 16 11 -5 14 -55 21 -63 9z"/>
<path d="M958 2093 c6 -2 18 -2 25 0 6 3 1 5 -13 5 -14 0 -19 -2 -12 -5z"/>
<path d="M2210 2091 c0 -6 5 -13 10 -16 6 -3 10 1 10 9 0 9 -4 16 -10 16 -5 0
-10 -4 -10 -9z"/>
<path d="M4242 2070 c7 -11 17 -20 22 -20 5 0 1 9 -9 20 -10 11 -20 20 -22 20
-2 0 2 -9 9 -20z"/>
<path d="M4350 2075 c-8 -9 -8 -15 -2 -15 12 0 26 19 19 26 -2 2 -10 -2 -17
-11z"/>
<path d="M4196 2072 c-2 -4 4 -8 14 -8 10 0 16 4 14 8 -3 4 -9 8 -14 8 -5 0
-11 -4 -14 -8z"/>
<path d="M2240 2056 c0 -9 5 -16 10 -16 6 0 10 4 10 9 0 6 -4 13 -10 16 -5 3
-10 -1 -10 -9z"/>
<path d="M4557 2063 c-11 -3 -16 -10 -13 -20 3 -8 1 -24 -5 -35 -8 -15 -8 -19
0 -13 7 4 17 2 24 -4 9 -7 17 -7 27 1 12 8 12 9 -2 4 -10 -3 -20 -1 -23 4 -4
6 -1 10 5 10 6 0 4 8 -6 18 -16 16 -16 17 -1 20 9 2 17 8 17 13 0 5 -1 8 -2 8
-2 -1 -11 -3 -21 -6z"/>
<path d="M4240 2029 c0 -5 5 -7 10 -4 6 3 10 8 10 11 0 2 -4 4 -10 4 -5 0 -10
-5 -10 -11z"/>
<path d="M1087 1989 c4 -13 8 -18 11 -10 2 7 -1 18 -6 23 -8 8 -9 4 -5 -13z"/>
<path d="M1670 1980 c0 -5 5 -10 11 -10 5 0 7 5 4 10 -3 6 -8 10 -11 10 -2 0
-4 -4 -4 -10z"/>
<path d="M4140 1980 c0 -5 5 -10 11 -10 5 0 7 5 4 10 -3 6 -8 10 -11 10 -2 0
-4 -4 -4 -10z"/>
<path d="M4708 1973 c7 -3 16 -2 19 1 4 3 -2 6 -13 5 -11 0 -14 -3 -6 -6z"/>
<path d="M4315 1960 c-3 -5 -1 -10 4 -10 6 0 11 5 11 10 0 6 -2 10 -4 10 -3 0
-8 -4 -11 -10z"/>
<path d="M4220 1946 c0 -9 5 -16 10 -16 6 0 10 4 10 9 0 6 -4 13 -10 16 -5 3
-10 -1 -10 -9z"/>
<path d="M1180 1880 c-8 -5 -12 -11 -9 -14 2 -3 11 -1 19 4 8 5 12 11 9 14 -2
3 -11 1 -19 -4z"/>
<path d="M2990 1790 c0 -5 5 -10 10 -10 6 0 10 5 10 10 0 6 -4 10 -10 10 -5 0
-10 -4 -10 -10z"/>
<path d="M2993 1744 c-4 -11 -8 -12 -13 -4 -5 8 -9 7 -13 -3 -8 -21 23 -15 35
6 5 9 6 17 3 17 -3 0 -8 -7 -12 -16z"/>
<path d="M4185 1740 c-20 -13 -23 -20 -14 -26 7 -4 14 -3 17 4 2 7 12 12 22
12 23 0 35 16 16 23 -7 3 -25 -3 -41 -13z"/>
<path d="M3016 1742 c-13 -12 -5 -20 19 -18 14 0 25 4 25 7 0 9 -37 18 -44 11z"/>
<path d="M2683 1708 c-2 -5 1 -16 9 -25 9 -12 9 -15 1 -9 -7 4 -13 4 -13 -1 0
-4 11 -13 24 -19 21 -10 24 -9 21 8 -2 10 0 16 6 13 5 -4 9 -1 9 5 0 6 5 8 10
5 12 -7 13 5 2 20 -9 12 -61 14 -69 3z"/>
<path d="M2760 1714 c0 -5 4 -15 8 -21 6 -10 12 -10 28 2 10 8 14 15 7 15 -6
0 -18 3 -27 6 -9 3 -16 2 -16 -2z"/>
<path d="M3020 1706 c0 -2 7 -7 16 -10 8 -3 12 -2 9 4 -6 10 -25 14 -25 6z"/>
<path d="M2879 1673 c-13 -16 -12 -17 4 -4 16 13 21 21 13 21 -2 0 -10 -8 -17
-17z"/>
<path d="M3005 1680 c-3 -5 -1 -10 4 -10 6 0 11 5 11 10 0 6 -2 10 -4 10 -3 0
-8 -4 -11 -10z"/>
<path d="M3040 1665 c-7 -9 -11 -17 -8 -20 2 -2 12 4 21 15 9 11 13 20 8 20
-5 0 -14 -7 -21 -15z"/>
<path d="M3500 1645 c10 -12 10 -18 0 -30 -7 -9 -8 -15 -2 -15 13 0 23 26 16
45 -4 8 -11 15 -16 15 -6 0 -5 -6 2 -15z"/>
<path d="M2680 1646 c0 -2 7 -6 15 -10 8 -3 15 -1 15 4 0 6 -7 10 -15 10 -8 0
-15 -2 -15 -4z"/>
<path d="M3296 1603 c-6 -14 -5 -15 5 -6 7 7 10 15 7 18 -3 3 -9 -2 -12 -12z"/>
<path d="M3340 1580 c-12 -7 -10 -9 7 -7 12 0 19 5 17 9 -6 10 -6 10 -24 -2z"/>
<path d="M4046 1512 c-2 -4 -1 -14 4 -22 7 -11 9 -9 7 8 -1 24 -3 26 -11 14z"/>
<path d="M2840 1310 c0 -12 28 -25 36 -17 3 3 -4 10 -15 17 -15 7 -21 7 -21 0z"/>
<path d="M3480 1030 c-13 -8 -13 -10 2 -10 9 0 20 5 23 10 8 13 -5 13 -25 0z"/>
<path d="M3290 998 c0 -4 14 -8 30 -8 17 0 30 2 30 4 0 2 -13 6 -30 8 -16 3
-30 1 -30 -4z"/>
<path d="M3388 970 c2 -16 11 -35 18 -41 12 -10 13 -9 8 6 -6 14 -3 16 13 11
24 -8 36 13 22 35 -6 10 -9 10 -9 2 0 -7 -4 -13 -10 -13 -5 0 -10 7 -10 15 0
8 -8 15 -18 15 -15 0 -18 -6 -14 -30z"/>
<path d="M3129 797 c5 -5 19 -7 32 -5 20 3 19 5 -9 9 -20 3 -29 2 -23 -4z"/>
<path d="M3320 773 c0 -10 4 -14 8 -8 4 6 11 13 16 18 5 4 2 7 -7 7 -10 0 -17
-8 -17 -17z"/>
</g>
</svg>
